<?xml version="1.0" encoding="utf-8"?>
<!-- Generator: Adobe Illustrator 16.0.0, SVG Export Plug-In . SVG Version: 6.00 Build 0)  -->
<!DOCTYPE svg PUBLIC "-//W3C//DTD SVG 1.1//EN" "http://www.w3.org/Graphics/SVG/1.1/DTD/svg11.dtd">
<svg version="1.1" id="Calque_1" xmlns="http://www.w3.org/2000/svg" xmlns:xlink="http://www.w3.org/1999/xlink" x="0px" y="0px"
	 width="381.095px" height="69.326px" viewBox="9.892 115.337 381.095 69.326"
	 enable-background="new 9.892 115.337 381.095 69.326" xml:space="preserve">
<g id="b5a93e15-ef7c-9d7a-680b-cdb17474f15f" transform="matrix(2.2,0,0,2.2,90.86749374866484,130.23299922943116)">
	<path fill="#FD2D01" d="M9.106,19.286L9.106,19.286c-2.326,0-4.272-0.784-5.84-2.352l0,0l0,0c-1.568-1.568-2.352-3.525-2.352-5.872
		l0,0l0,0c0-2.304,0.784-4.245,2.352-5.824l0,0l0,0C4.834,3.67,6.78,2.885,9.106,2.885l0,0l0,0c2.336,0,4.341,0.731,6.016,2.192l0,0
		l-2.176,2.385l0,0c-1.12-0.875-2.4-1.312-3.84-1.312l0,0l0,0C7.634,6.161,6.444,6.624,5.538,7.542l0,0l0,0
		C4.642,8.448,4.194,9.611,4.194,11.03l0,0l0,0c0,1.525,0.453,2.736,1.36,3.632l0,0l0,0c0.906,0.896,2.096,1.344,3.568,1.344l0,0
		l0,0c1.184,0,2.091-0.23,2.72-0.688l0,0v-2.816l-2.176,0.016V9.446h5.456v7.664l0,0C13.458,18.56,11.452,19.286,9.106,19.286
		L9.106,19.286z M20.994,8.342v1.216l0,0c0.789-0.8,1.744-1.2,2.864-1.2l0,0l0,0c0.352,0,0.688,0.027,1.008,0.08l0,0l-0.48,3.024
		l0,0c-0.352-0.32-0.858-0.491-1.52-0.512l0,0l0,0c-0.747,0.054-1.371,0.592-1.872,1.616l0,0v6.72h-3.056V8.678L20.994,8.342z
		 M31.826,19.398L31.826,19.398c-1.59,0-2.917-0.533-3.984-1.6l0,0l0,0c-1.056-1.066-1.584-2.389-1.584-3.968l0,0l0,0
		c0-1.589,0.528-2.917,1.584-3.984l0,0l0,0c1.067-1.067,2.394-1.6,3.984-1.6l0,0l0,0c1.59,0,2.918,0.533,3.984,1.6l0,0l0,0
		c1.067,1.067,1.6,2.395,1.6,3.984l0,0l0,0c0,1.59-0.533,2.912-1.6,3.968l0,0l0,0C34.743,18.865,33.415,19.398,31.826,19.398
		L31.826,19.398z M31.826,16.758L31.826,16.758L31.826,16.758c0.822,0,1.494-0.283,2.016-0.848l0,0l0,0
		c0.522-0.554,0.784-1.248,0.784-2.08l0,0l0,0c0-0.832-0.261-1.525-0.784-2.08l0,0l0,0c-0.522-0.566-1.2-0.848-2.032-0.848l0,0l0,0
		c-0.821,0-1.493,0.283-2.016,0.848l0,0l0,0c-0.512,0.554-0.768,1.248-0.768,2.08l0,0l0,0c0,0.832,0.256,1.526,0.768,2.08l0,0l0,0
		C30.316,16.475,30.994,16.758,31.826,16.758z M46.082,15.414L46.082,15.414V8.342h3.056v10.944h-3.056v-0.992l0,0
		c-0.736,0.661-1.611,0.992-2.624,0.992l0,0l0,0c-1.387,0-2.443-0.421-3.168-1.264l0,0l0,0c-0.736-0.843-1.104-1.808-1.104-2.896
		l0,0V8.342h3.072v6.016l0,0c0,0.726,0.182,1.291,0.544,1.697l0,0l0,0c0.363,0.405,0.912,0.618,1.648,0.64l0,0l0,0
		C45.09,16.651,45.634,16.224,46.082,15.414z M54.802,23.894l-3.056-0.016v-15.2l3.056-0.336v0.88l0,0
		c0.821-0.587,1.626-0.88,2.416-0.88l0,0l0,0c1.675,0,3.002,0.55,3.984,1.648l0,0l0,0c0.992,1.088,1.488,2.363,1.488,3.824l0,0l0,0
		c0,1.462-0.496,2.736-1.488,3.824l0,0l0,0c-0.982,1.099-2.31,1.648-3.984,1.648l0,0l0,0c-1.099-0.075-1.904-0.373-2.416-0.896l0,0
		V23.894z M54.802,12.822L54.802,12.822v1.776l0,0c0.149,1.226,0.917,1.946,2.304,2.16l0,0l0,0c1.749-0.139,2.736-1.046,2.96-2.72
		l0,0l0,0c-0.075-2.048-1.061-3.109-2.96-3.184l0,0l0,0C55.719,11.078,54.951,11.734,54.802,12.822z M69.81,19.398L69.81,19.398
		c-1.59,0-2.912-0.533-3.968-1.6l0,0l0,0c-1.066-1.066-1.6-2.389-1.6-3.968l0,0l0,0c0-1.589,0.534-2.917,1.6-3.984l0,0l0,0
		c1.056-1.067,2.379-1.6,3.968-1.6l0,0l0,0c1.589,0,2.917,0.533,3.983,1.6l0,0l0,0c1.067,1.067,1.6,2.395,1.6,3.984l0,0l0,0
		c0,1.59-0.533,2.912-1.6,3.968l0,0l0,0C72.727,18.865,71.399,19.398,69.81,19.398L69.81,19.398z M69.81,16.758L69.81,16.758
		L69.81,16.758c0.832,0,1.504-0.283,2.016-0.848l0,0l0,0c0.522-0.554,0.784-1.248,0.784-2.08l0,0l0,0
		c0-0.832-0.262-1.525-0.784-2.08l0,0l0,0c-0.512-0.566-1.189-0.848-2.032-0.848l0,0l0,0c-0.822,0-1.493,0.283-2.016,0.848l0,0l0,0
		c-0.512,0.554-0.768,1.248-0.768,2.08l0,0l0,0c0,0.832,0.256,1.526,0.768,2.08l0,0l0,0C68.301,16.475,68.978,16.758,69.81,16.758z
		 M80.498,12.294L80.498,12.294v6.992h-3.072V8.678l3.072-0.336v0.976l0,0c0.683-0.64,1.557-0.96,2.624-0.96l0,0l0,0
		c1.376,0,2.432,0.416,3.168,1.248l0,0l0,0c0.8-0.832,2-1.248,3.6-1.248l0,0l0,0c1.387,0,2.448,0.416,3.184,1.248l0,0l0,0
		c0.725,0.843,1.088,1.813,1.088,2.912l0,0v6.768h-3.056V13.27l0,0c0-0.725-0.165-1.291-0.496-1.696l0,0l0,0
		c-0.331-0.395-0.864-0.603-1.6-0.624l0,0l0,0c-0.608,0.043-1.131,0.443-1.568,1.2l0,0l0,0c-0.043,0.224-0.064,0.454-0.064,0.688
		l0,0v6.448h-3.056V13.27l0,0c0-0.725-0.165-1.291-0.496-1.696l0,0l0,0c-0.331-0.395-0.864-0.603-1.6-0.624l0,0l0,0
		C81.553,10.993,80.978,11.44,80.498,12.294z M98.274,11.526l-1.2-1.856l0,0c1.387-0.875,2.992-1.312,4.816-1.312l0,0l0,0
		c1.312,0,2.347,0.363,3.104,1.088l0,0l0,0c0.768,0.736,1.152,1.829,1.152,3.28l0,0v6.56h-3.056v-0.864l0,0
		c-0.896,0.576-1.701,0.864-2.416,0.864l0,0l0,0c-1.451,0-2.544-0.309-3.28-0.928l0,0l0,0c-0.725-0.619-1.088-1.472-1.088-2.56l0,0
		l0,0c0-1.024,0.347-1.936,1.04-2.736l0,0l0,0c0.683-0.8,1.792-1.2,3.328-1.2l0,0l0,0c0.715,0,1.52,0.218,2.416,0.656l0,0v-0.336
		l0,0c-0.021-0.8-0.608-1.237-1.76-1.312l0,0l0,0C100.018,10.87,98.999,11.089,98.274,11.526L98.274,11.526z M103.09,16.006
		L103.09,16.006v-1.232l0,0c-0.288-0.566-0.981-0.848-2.08-0.848l0,0l0,0c-1.312,0.149-2.006,0.661-2.08,1.536l0,0l0,0
		c0.075,0.864,0.768,1.333,2.08,1.408l0,0l0,0C102.108,16.87,102.802,16.582,103.09,16.006z M111.954,12.342L111.954,12.342v6.944
		h-3.072V8.678l3.072-0.336v0.992l0,0c0.736-0.65,1.61-0.976,2.624-0.976l0,0l0,0c1.387,0,2.443,0.416,3.168,1.248l0,0l0,0
		c0.725,0.843,1.088,1.813,1.088,2.912l0,0v6.768h-3.056V13.27l0,0c0-0.725-0.181-1.291-0.544-1.696l0,0l0,0
		c-0.373-0.395-0.928-0.603-1.664-0.624l0,0l0,0C112.94,10.993,112.402,11.456,111.954,12.342z M124.466,19.286h-3.056V8.342h3.056
		V19.286z M121.298,5.733L121.298,5.733L121.298,5.733c0,0.438,0.144,0.8,0.432,1.088l0,0l0,0c0.299,0.288,0.704,0.432,1.216,0.432
		l0,0l0,0c0.502,0,0.902-0.144,1.2-0.432l0,0l0,0c0.288-0.288,0.432-0.651,0.432-1.088l0,0l0,0c0-0.437-0.144-0.805-0.432-1.104l0,0
		l0,0c-0.299-0.299-0.709-0.448-1.232-0.448l0,0l0,0c-0.49,0-0.885,0.149-1.184,0.448l0,0l0,0
		C121.442,4.928,121.298,5.297,121.298,5.733z M128.546,11.526l-1.2-1.856l0,0c1.387-0.875,2.992-1.312,4.816-1.312l0,0l0,0
		c1.312,0,2.352,0.363,3.12,1.088l0,0l0,0c0.757,0.736,1.136,1.829,1.136,3.28l0,0v6.56h-3.056v-0.864l0,0
		c-0.885,0.576-1.685,0.864-2.4,0.864l0,0l0,0c-1.461,0-2.555-0.309-3.28-0.928l0,0l0,0c-0.736-0.619-1.104-1.472-1.104-2.56l0,0
		l0,0c0-1.024,0.346-1.936,1.04-2.736l0,0l0,0c0.683-0.8,1.797-1.2,3.344-1.2l0,0l0,0c0.704,0,1.504,0.218,2.4,0.656l0,0v-0.336l0,0
		c-0.011-0.8-0.592-1.237-1.744-1.312l0,0l0,0C130.306,10.87,129.282,11.089,128.546,11.526L128.546,11.526z M133.361,16.006
		L133.361,16.006v-1.232l0,0c-0.288-0.566-0.981-0.848-2.08-0.848l0,0l0,0c-1.312,0.149-2.005,0.661-2.08,1.536l0,0l0,0
		c0.075,0.864,0.768,1.333,2.08,1.408l0,0l0,0C132.38,16.87,133.074,16.582,133.361,16.006z"/>
</g>
<g id="_x39_269873b-566f-aa23-fe77-697bbc54db67" transform="matrix(0.17276311525438642,0,0,0.17276311525438642,35.75002377601375,124.08554457454373)">
	<g>
		<path fill="#FFD7D7" d="M50.964,350.64c53.762,0,104.161-20.638,142.078-58.555c37.918-37.923,58.561-88.328,58.561-142.084
			S230.96,45.839,193.042,7.916c-37.918-37.918-88.316-58.555-142.078-58.555c-53.762,0-104.161,20.638-142.078,58.555
			C-129.038,45.839-149.676,96.244-149.676,150s20.638,104.161,58.561,142.084C-53.197,330.002-2.798,350.64,50.964,350.64z
			 M62.484,316.56c-3.838,0.48-7.682,0.48-11.52,0.48c-5.28,0-10.565-0.48-15.844-0.961c-17.274-26.878-30.236-55.678-37.918-85.92
			h84.959c2.883,7.201,8.162,13.922,14.403,18.241C88.401,272.402,76.881,294.961,62.484,316.56z M108.083,306.962
			c9.123-16.8,16.319-33.599,22.079-51.36c13.917-2.883,24.962-12.481,30.241-25.442h36.957
			C178.165,265.2,146.001,292.559,108.083,306.962z M217.524,150c0,15.839-2.402,31.202-6.24,46.08h-51.84
			c-2.883-6.24-7.676-12-13.442-16.319c0.961-10.565,1.441-21.124,1.441-31.683c0-14.878-0.961-29.755-2.877-44.158h66.237
			C215.602,118.323,217.524,134.161,217.524,150z M197.361,69.84H138.8c-6.24-26.403-15.358-51.36-27.833-75.361
			C147.443,8.402,178.165,35.761,197.361,69.84z M113.844,148.078c0,8.162-0.48,16.325-0.961,24.481
			c-13.436,2.877-24.481,11.52-29.761,23.521H-9.514c-1.922-14.403-3.363-29.281-3.363-43.683c0-9.118,0.48-18.235,1.441-27.359
			c12.481-2.397,22.56-10.559,28.794-21.118h93.607C112.883,118.323,113.844,133.201,113.844,148.078z M38.483-16.079
			c4.324-0.48,8.643-0.48,12.481-0.48c4.799,0,9.598,0,14.397,0.48c17.286,26.878,30.241,55.678,37.923,85.92H19.767
			c-2.883-8.157-8.162-15.358-14.883-20.638C13.527,26.163,24.56,4.558,38.483-16.079L38.483-16.079z M-7.117-6.481
			c-8.162,15.358-15.364,31.683-21.118,48.002c-14.883,2.877-26.884,13.922-31.683,27.839h-35.041
			C-76.237,35.28-45.035,7.922-7.117-6.481z M-115.596,150c0-15.839,2.402-31.677,6.721-46.08h52.321
			c2.877,5.28,7.201,10.084,11.995,13.917c-0.961,11.52-1.916,23.04-1.916,34.56c0,14.883,0.955,29.281,2.877,43.683h-65.276
			C-113.68,181.203-115.596,165.839-115.596,150z M-37.833,229.679c6.235,25.923,15.353,51.36,27.833,75.361
			c-36.476-14.403-66.718-41.281-85.434-75.361H-37.833z"/>
	</g>
</g>
</svg>
